<svg xmlns="http://www.w3.org/2000/svg" className=" fill-amber-600 stroke-current" stroke="current" width="512" height="512"><path d="m249.063-.375 3.623-.042c6.859.038 11.806.32 17.142 5.03 3.946 4.716 5.844 8.49 6.547 14.7-.618 6.08-2.63 11.522-7.313 15.625-4.693 3.16-8.411 4.294-14.05 4.554l-3.543.19-3.781.193c-57.526 3.54-109.761 26.5-149.782 68.313-1.681 1.903-3.295 3.85-4.906 5.812l-2.215 2.52c-37.01 42.74-54.086 99.666-50.583 155.714C42.652 301.938 50.767 330.796 65 357l1.066 2.006C78.029 381.48 94.256 402.79 114 419l2.52 2.215c42.74 37.01 99.666 54.086 155.714 50.583 29.704-2.45 58.562-10.565 84.766-24.798l2.006-1.066C381.48 433.971 402.79 417.744 419 398l2.215-2.52c32.52-37.555 49.045-85.444 50.927-134.685.4-8.218 1.348-14.875 7.733-20.67 5.3-3.604 9.736-4.676 16.125-4.125 6.97 1.391 11.003 5.253 15 11 5.246 15.738.861 37.91-2 54l-.504 2.837C500.821 345.438 482.576 384.183 456 417l-1.333 1.65C443.188 432.722 430.423 445.937 416 457c-.93.76-1.861 1.519-2.82 2.3-32.252 25.86-71.705 42.328-112.18 49.7l-2.532.496c-27.71 5.29-59.819 4.92-87.468-.496l-2.767-.504C166.601 500.836 127.84 482.594 95 456l-1.65-1.333C79.278 443.188 66.063 430.423 55 416c-.76-.93-1.519-1.861-2.3-2.82C26.84 380.928 10.371 341.475 3 301l-.496-2.532c-5.29-27.71-4.92-59.819.496-87.468l.504-2.767C11.164 166.601 29.406 127.84 56 95l1.333-1.65C68.812 79.278 81.577 66.063 96 55c.93-.76 1.861-1.519 2.82-2.3C130.98 26.912 170.575 10.18 211 3l2.79-.496C225.534.507 237.153-.285 249.063-.375Z"/><path d="M493.25 65.438c4.74 2.774 7.723 6.476 9.75 11.562 1.265 7.445.629 12.54-3.417 18.816-2.834 3.91-6.222 7.227-9.647 10.616-.807.81-1.615 1.62-2.446 2.456-2.695 2.702-5.4 5.393-8.106 8.085-1.94 1.939-3.878 3.88-5.816 5.822a8874.23 8874.23 0 0 1-14.153 14.133 15141.539 15141.539 0 0 0-16.497 16.477c-9.81 9.809-19.629 19.61-29.45 29.409-9.52 9.496-19.035 18.997-28.544 28.503l-1.775 1.773-3.54 3.538-1.763 1.764-1.76 1.758a80314.307 80314.307 0 0 1-27.24 27.214c-3.286 3.28-6.57 6.562-9.855 9.844a22874.933 22874.933 0 0 1-15.642 15.615 9133.318 9133.318 0 0 0-7.142 7.13 7340.43 7340.43 0 0 1-7.762 7.742l-2.253 2.256a230.857 230.857 0 0 1-12.489 11.57c-2.263 1.965-4.376 4.054-6.48 6.19l-2.557 2.587-2.678 2.722c-.94.95-1.88 1.899-2.822 2.847a4629.668 4629.668 0 0 0-11.857 11.995c-1.956 1.987-3.917 3.97-5.882 5.95-1.843 1.855-3.68 3.717-5.51 5.585l-2.53 2.54-2.207 2.237c-4.086 3.422-7.885 4.118-13.118 4.139l-3.027.05c-6.865-.821-10.894-4.797-15.472-9.55l-1.62-1.635c-3.528-3.596-6.856-7.34-10.155-11.145-2.972-3.38-6.07-6.639-9.163-9.908-4.816-5.113-9.578-10.262-14.254-15.504-3.085-3.41-6.227-6.765-9.371-10.121-3.872-4.134-7.727-8.276-11.5-12.5-3.735-4.18-7.545-8.283-11.375-12.375A2062.444 2062.444 0 0 1 134 246c-.85-.92-1.699-1.84-2.574-2.79L129 240.563l-2.125-2.308c-4.447-5.346-6.342-9.978-6.21-16.969.788-5.366 3.195-10.286 7.167-13.996 5.326-3.635 10.105-4.583 16.438-4.125 11.219 2.139 18.84 13.652 25.942 21.812 2.94 3.327 5.988 6.548 9.038 9.774A1770.49 1770.49 0 0 1 198 255c1.812 1.98 3.624 3.959 5.438 5.938l1.368 1.493c3.39 3.697 6.79 7.384 10.194 11.069l6 6.5 1.503 1.628C227.769 287.336 233 293.055 238 299c5.079-4.253 9.838-8.699 14.508-13.394l2.19-2.19c2.409-2.41 4.813-4.822 7.218-7.234l5.195-5.2c3.723-3.726 7.444-7.453 11.164-11.182a29727.4 29727.4 0 0 1 16.167-16.19 95595.013 95595.013 0 0 0 40.59-40.644 645029.811 645029.811 0 0 1 12.71-12.73c8.721-8.736 17.446-17.47 26.171-26.203a29952.68 29952.68 0 0 0 16.117-16.142c4.118-4.127 8.239-8.252 12.36-12.376 1.686-1.688 3.371-3.376 5.055-5.066a5852.61 5852.61 0 0 1 6.92-6.928l2.002-2.013c3.84-3.83 7.793-7.47 11.906-11.005 2.229-1.94 4.312-3.996 6.38-6.106l2.477-2.517 2.593-2.646c1.381-1.398 2.763-2.797 4.146-4.194 3.373-3.411 6.741-6.827 10.098-10.254 1.896-1.935 3.798-3.866 5.706-5.79a823.07 823.07 0 0 0 5.336-5.432c8.053-8.088 16.815-12.889 28.241-8.126Z"/></svg>